<svg width="165" height="144" viewBox="0 0 165 144" fill="none" xmlns="http://www.w3.org/2000/svg">
<g clip-path="url(#clip0_32_72)">
<path d="M164.561 0H0V144H164.561V0Z" fill="white"/>
<path d="M46.6412 50.8723V39.5913H15.9206V50.8723H22.9686V75.0029H15.9206V86.2838H46.6412V75.0029H39.5932V50.8723H46.6412Z" fill="#1A3659"/>
<path d="M80.5433 57.5074C78.6445 56.978 68.8744 54.2979 67.1827 53.7684C65.4911 53.239 64.1101 52.478 64.1101 51.5184C64.1101 50.5589 65.6637 49.5331 68.8053 49.5331C78.7136 49.5331 83.4734 55.3898 83.4734 55.3898C83.4734 55.3898 84.0097 56.0746 84.1895 56.3202H93.7489V40.3418H83.4866V43.2488C82.7028 42.7299 76.9161 39.1104 67.9422 39.1104C56.1007 39.1104 49.5067 45.0001 49.5067 53.8015C49.5067 62.603 57.8268 66.2427 60.1399 67.1692C62.453 68.0956 71.4981 70.5442 75.3648 71.7023C79.2314 72.8604 80.6469 73.6876 80.6469 74.2831C80.6469 74.8787 78.9552 76.4339 74.1219 76.4339C65.7029 76.4339 61.3673 71.6755 60.6064 70.7541V70.7469C60.3645 70.4362 60.0805 70.0685 59.9841 69.9301C59.8726 69.7699 59.6138 69.4144 59.4343 69.1688H49.8748V86.232H60.6064V82.6688C61.855 83.4653 68.2469 87.2868 75.9172 87.2868C84.479 87.2868 95.3884 83.7133 95.3884 72.5626C95.3884 61.4118 82.4421 58.0368 80.5433 57.5074Z" fill="#1A3659"/>
<path d="M122.637 38.9534C108.364 38.9534 96.6583 45.7928 96.6583 63.252C96.6583 80.7113 109.366 87.2508 122.699 87.2508C136.033 87.2508 148.616 80.7711 148.616 63.4323C148.616 46.0935 136.034 38.9534 122.637 38.9534ZM122.762 75.6114C117.879 75.6114 114.749 74.5314 114.749 63.1922C114.749 51.8528 117.066 50.6528 122.95 50.6528C126.518 50.6528 130.838 50.8927 130.838 62.8322C130.838 74.7718 127.645 75.6114 122.762 75.6114Z" fill="#1A3659"/>
<path d="M36.3905 34.442C39.599 29.9012 43.5446 25.8761 48.0678 22.5334C49.8967 23.8294 51.8408 25.0049 53.8845 26.0526C50.4604 29.7109 47.3925 33.7638 46.8843 34.442H48.9388C50.172 32.849 52.7229 29.6444 55.4127 26.8033C58.3527 28.1885 61.4772 29.3215 64.7373 30.1844C63.8696 31.949 63.2136 33.4919 62.8286 34.442H64.6136C65.0238 33.4636 65.6247 32.099 66.3746 30.5913C70.5334 31.5651 74.8911 32.111 79.3491 32.1941V34.4422H81.0062V32.2017C85.4316 32.1708 89.7652 31.6874 93.9094 30.7792C94.6159 32.2115 95.1846 33.5046 95.5776 34.442H97.3626C96.9925 33.5295 96.3733 32.071 95.5555 30.393C98.8739 29.5655 102.058 28.4622 105.057 27.0987C107.644 29.8644 110.062 32.9043 111.253 34.442H113.307C112.814 33.7847 109.905 29.9404 106.6 26.3671C108.872 25.2413 111.027 23.9604 113.042 22.5334C117.565 25.8761 121.511 29.9012 124.719 34.442H126.712C116.911 19.9437 99.8825 10.3307 80.5544 10.3307C61.2262 10.3307 44.1981 19.9437 34.3967 34.442H36.3905ZM65.4767 28.732C62.3757 27.9291 59.4003 26.8767 56.5953 25.5891C56.9765 25.2095 57.3573 24.8419 57.7338 24.4938C61.5747 20.9438 67.8922 17.0457 69.2771 16.2066C70.4009 16.7982 71.6271 17.2985 72.9316 17.6956C71.9185 18.9688 69.9294 21.5534 67.7633 24.8318C66.9201 26.1077 66.152 27.4487 65.4767 28.732ZM79.3491 30.6053C75.1521 30.5248 71.0485 30.024 67.1261 29.1325C67.7395 27.9831 68.4239 26.8004 69.1633 25.6818C71.6589 21.9052 73.9104 19.0697 74.6605 18.1472C76.1572 18.4842 77.7301 18.6972 79.3491 18.7669V30.6053ZM81.0062 30.6132V18.7849C82.6034 18.7589 84.1661 18.5969 85.6616 18.3087C86.5189 19.3715 88.6643 22.1043 91.0282 25.6818C91.806 26.8589 92.5232 28.1067 93.1609 29.3125C89.2523 30.141 85.1725 30.5836 81.0062 30.6132ZM94.8222 28.9363C94.1215 27.5916 93.3159 26.1755 92.428 24.8318C90.3737 21.7226 88.4779 19.237 87.4237 17.9023C88.811 17.5288 90.1207 17.0434 91.3232 16.456C93.2673 17.6503 98.9137 21.2186 102.457 24.4938C102.928 24.9287 103.404 25.3932 103.881 25.875C101.017 27.1422 97.9818 28.1679 94.8222 28.9363ZM111.654 21.5405C109.71 22.8854 107.633 24.0904 105.446 25.1497C104.834 24.5213 104.218 23.9143 103.608 23.3505C100.293 20.2871 95.358 17.0733 92.94 15.5642C93.7614 15.0538 94.5126 14.4895 95.1824 13.8751C101.168 15.5142 106.724 18.135 111.654 21.5405ZM80.5549 11.9189C84.9308 11.9189 89.1838 12.4306 93.2562 13.3883C90.1657 15.7942 85.5348 17.2056 80.5549 17.2056C75.5523 17.2056 70.9342 15.7987 67.8478 13.3896C71.9216 12.4311 76.1765 11.9189 80.5549 11.9189ZM65.9266 13.8751C66.4718 14.3759 67.0686 14.8445 67.7152 15.2765C65.5245 16.6275 60.1286 20.0742 56.5837 23.3502C56.0733 23.822 55.5588 24.3244 55.0462 24.8437C53.0855 23.8598 51.2157 22.7578 49.4562 21.5405C54.385 18.135 59.9413 15.5144 65.9266 13.8751Z" fill="#1A3659"/>
<path d="M124.721 91.5742C121.581 96.0194 117.734 99.9699 113.331 103.27C111.234 101.759 108.983 100.408 106.602 99.2277C109.47 96.1274 112.039 92.8234 112.99 91.5745H110.927C109.655 93.2024 107.428 95.9641 105.059 98.4966C102.06 97.1325 98.8764 96.0284 95.5574 95.2012C96.2592 93.761 96.8135 92.4846 97.1908 91.5745H95.4005C95.021 92.4618 94.5164 93.5876 93.9102 94.8166C89.7685 93.9097 85.4354 93.4266 81.0064 93.3959V91.5745H79.3493V93.4031C74.8878 93.4859 70.5304 94.0312 66.374 95.0038C65.7266 93.7022 65.19 92.5065 64.7914 91.5745H63.0009C63.3961 92.5285 63.9861 93.8848 64.7362 95.4101C61.4753 96.2733 58.3496 97.4047 55.4099 98.7907C52.9397 96.1809 50.5874 93.2657 49.2653 91.5742H47.2016C48.1843 92.8647 50.8984 96.354 53.8845 99.5437C51.7338 100.648 49.6917 101.891 47.7791 103.27C43.3756 99.9697 39.5283 96.0192 36.3883 91.574H34.3981C44.1997 106.072 61.2272 115.685 80.5551 115.685C99.8828 115.685 116.911 106.072 126.712 91.574L124.721 91.5742ZM94.823 96.6587C97.9837 97.4269 101.019 98.4524 103.883 99.72C103.406 100.202 102.929 100.668 102.458 101.103C98.925 104.368 93.2965 107.928 91.3378 109.132C90.1353 108.542 88.8239 108.057 87.4322 107.683C88.4884 106.346 90.3792 103.865 92.4279 100.765C93.3164 99.4209 94.1221 98.0039 94.823 96.6587ZM81.0062 94.9839C85.1758 95.0136 89.2556 95.4548 93.1617 96.2823C92.5237 97.4888 91.8065 98.7369 91.0279 99.9151C88.6673 103.488 86.5252 106.217 85.6655 107.283C84.174 106.999 82.6114 106.838 81.0059 106.813V94.9839H81.0062ZM79.349 94.9919V106.829C77.7239 106.898 76.1494 107.108 74.6547 107.443C73.8993 106.514 71.655 103.686 69.1632 99.9151C68.4233 98.7957 67.7384 97.6122 67.1247 96.4618C71.0449 95.5713 75.1485 95.0721 79.349 94.9919ZM65.4758 96.8636C66.1514 98.1477 66.92 99.4887 67.7632 100.765C69.9277 104.041 71.9154 106.624 72.9293 107.898C71.623 108.295 70.3981 108.796 69.2748 109.389C67.8848 108.546 61.5728 104.651 57.734 101.103C57.357 100.755 56.9762 100.387 56.5945 100.007C59.3989 98.7189 62.374 97.6662 65.4758 96.8636ZM49.1559 104.266C51.0028 102.965 52.972 101.791 55.0437 100.751C55.5568 101.271 56.0725 101.774 56.5834 102.247C60.1275 105.522 65.5217 108.968 67.7132 110.319C66.9325 110.843 66.2207 111.419 65.5882 112.044C59.611 110.366 54.0665 107.708 49.1559 104.266ZM80.5549 114.097C76.0356 114.097 71.6464 113.553 67.4533 112.534C70.5152 109.955 75.3772 108.392 80.5549 108.392C85.7262 108.392 90.5929 109.956 93.655 112.534C89.4622 113.554 85.0736 114.097 80.5549 114.097ZM95.5204 112.044C94.7686 111.302 93.9094 110.625 92.9507 110.026C95.3729 108.514 100.298 105.305 103.608 102.246C104.218 101.682 104.835 101.075 105.446 100.446C107.745 101.561 109.924 102.835 111.954 104.266C107.043 107.708 101.498 110.366 95.5204 112.044Z" fill="#1A3659"/>
<path d="M19.0813 132.53C19.155 133.844 19.6839 134.752 20.6685 135.254C21.1745 135.519 21.7448 135.651 22.3798 135.651C23.5666 135.651 24.5785 135.177 25.4159 134.229C26.2531 133.282 26.8466 131.357 27.1962 128.456C26.6441 129.293 25.9611 129.882 25.1469 130.222C24.3327 130.561 23.4564 130.731 22.5179 130.731C20.6133 130.731 19.1067 130.163 17.9981 129.027C16.8892 127.89 16.3351 126.428 16.3351 124.64C16.3351 122.922 16.8825 121.411 17.9774 120.108C19.0722 118.804 20.687 118.152 22.8214 118.152C25.701 118.152 27.6884 119.395 28.7832 121.88C29.3905 123.245 29.6941 124.955 29.6941 127.008C29.6941 129.326 29.3306 131.379 28.604 133.168C27.3984 136.146 25.356 137.636 22.4765 137.636C20.5442 137.636 19.0766 137.15 18.074 136.181C17.0712 135.211 16.5696 133.994 16.5696 132.53H19.0813V132.53ZM25.5471 127.71C26.3613 127.089 26.7684 126.004 26.7684 124.455C26.7684 123.064 26.4027 122.027 25.6711 121.345C24.9398 120.662 24.0082 120.321 22.8767 120.321C21.6623 120.321 20.6984 120.711 19.9852 121.49C19.2721 122.269 18.9156 123.31 18.9156 124.613C18.9156 125.846 19.2282 126.825 19.8541 127.552C20.4796 128.278 21.4778 128.641 22.8488 128.641C23.8334 128.641 24.7329 128.331 25.5471 127.71Z" fill="#1A3659"/>
<path d="M44.2401 121.207C45.1233 122.768 45.5649 124.907 45.5649 127.623C45.5649 130.197 45.1647 132.327 44.3643 134.011C43.2052 136.427 41.3094 137.635 38.6785 137.635C36.3046 137.635 34.5381 136.648 33.379 134.673C32.4129 133.024 31.9298 130.81 31.9298 128.033C31.9298 125.881 32.2198 124.034 32.7992 122.49C33.8847 119.616 35.8492 118.178 38.692 118.178C41.2498 118.178 43.0991 119.188 44.2401 121.207ZM41.7403 133.826C42.505 132.733 42.8876 130.696 42.8876 127.715C42.8876 125.563 42.6108 123.793 42.0582 122.404C41.5052 121.016 40.4314 120.321 38.8373 120.321C37.3718 120.321 36.3005 120.98 35.6233 122.299C34.9458 123.617 34.6072 125.559 34.6072 128.125C34.6072 130.056 34.8237 131.609 35.2568 132.781C35.9202 134.571 37.0539 135.466 38.6572 135.466C39.9475 135.466 40.975 134.919 41.7403 133.826Z" fill="#1A3659"/>
<path d="M59.959 121.207C60.8423 122.768 61.2839 124.907 61.2839 127.623C61.2839 130.197 60.8837 132.327 60.0833 134.011C58.9241 136.427 57.0284 137.635 54.3974 137.635C52.0236 137.635 50.2571 136.648 49.0979 134.673C48.1318 133.024 47.6488 130.81 47.6488 128.033C47.6488 125.881 47.9388 124.034 48.5182 122.49C49.6036 119.616 51.5682 118.178 54.411 118.178C56.969 118.178 58.8181 119.188 59.959 121.207ZM57.4592 133.826C58.224 132.733 58.6065 130.696 58.6065 127.715C58.6065 125.563 58.3298 123.793 57.7771 122.404C57.2242 121.016 56.1504 120.321 54.5562 120.321C53.0908 120.321 52.0194 120.98 51.3422 122.299C50.6647 123.617 50.3261 125.559 50.3261 128.125C50.3261 130.056 50.5427 131.609 50.9757 132.781C51.6391 134.571 52.7729 135.466 54.3762 135.466C55.6665 135.466 56.6939 134.919 57.4592 133.826Z" fill="#1A3659"/>
<path d="M65.1895 123.707V121.882C66.9836 121.714 68.2347 121.435 68.9431 121.042C69.6515 120.65 70.1804 119.722 70.5304 118.258H72.4899V137.119H69.8402V123.707L65.1895 123.707Z" fill="#1A3659"/>
<path d="M81.3365 123.139H84.221V126.022H81.3365V123.139ZM81.3365 134.236H84.221V137.12H81.3365V134.236Z" fill="#1A3659"/>
<path d="M87.9951 132.86C88.6069 131.653 89.8005 130.555 91.5764 129.567L94.2262 128.099C95.4132 127.437 96.2457 126.872 96.7243 126.404C97.4783 125.671 97.8558 124.832 97.8558 123.886C97.8558 122.782 97.5109 121.905 96.821 121.256C96.1308 120.606 95.2108 120.282 94.0607 120.282C92.3586 120.282 91.1809 120.901 90.5277 122.139C90.1781 122.802 89.9848 123.722 89.948 124.898H87.4226C87.4502 123.249 87.7675 121.904 88.3746 120.864C89.4509 119.03 91.3508 118.113 94.0743 118.113C96.3376 118.113 97.9914 118.699 99.0357 119.872C100.08 121.045 100.602 122.35 100.602 123.787C100.602 125.304 100.045 126.6 98.9324 127.676C98.2881 128.302 97.1333 129.06 95.4682 129.951L93.5774 130.956C92.6757 131.432 91.9675 131.887 91.4524 132.318C90.5322 133.085 89.9524 133.936 89.7133 134.871H100.506V137.12H86.9395C87.0312 135.488 87.3833 134.068 87.9951 132.86Z" fill="#1A3659"/>
<path d="M114.969 121.207C115.852 122.768 116.294 124.907 116.294 127.623C116.294 130.197 115.894 132.327 115.093 134.011C113.934 136.427 112.038 137.635 109.407 137.635C107.033 137.635 105.267 136.648 104.108 134.673C103.142 133.024 102.659 130.81 102.659 128.033C102.659 125.881 102.949 124.034 103.528 122.49C104.614 119.616 106.578 118.178 109.421 118.178C111.978 118.178 113.828 119.188 114.969 121.207ZM112.469 133.826C113.234 132.733 113.616 130.696 113.616 127.715C113.616 125.563 113.34 123.793 112.787 122.404C112.234 121.016 111.16 120.321 109.566 120.321C108.101 120.321 107.029 120.98 106.352 122.299C105.674 123.617 105.336 125.559 105.336 128.125C105.336 130.056 105.552 131.609 105.985 132.781C106.649 134.571 107.783 135.466 109.386 135.466C110.677 135.466 111.704 134.919 112.469 133.826Z" fill="#1A3659"/>
<path d="M120.199 123.707V121.882C121.993 121.714 123.244 121.435 123.953 121.042C124.661 120.65 125.19 119.722 125.54 118.258H127.5V137.119H124.85V123.707L120.199 123.707Z" fill="#1A3659"/>
<path d="M136.705 132.292C136.87 133.65 137.528 134.589 138.678 135.109C139.267 135.374 139.948 135.506 140.721 135.506C142.193 135.506 143.283 135.056 143.992 134.157C144.7 133.257 145.055 132.261 145.055 131.168C145.055 129.845 144.634 128.822 143.792 128.099C142.95 127.376 141.94 127.014 140.763 127.014C139.907 127.014 139.173 127.173 138.562 127.49C137.95 127.808 137.428 128.249 136.995 128.813L134.842 128.694L136.347 118.496H146.614V120.797H138.209L137.367 126.062C137.827 125.727 138.264 125.476 138.678 125.308C139.414 125.017 140.266 124.872 141.231 124.872C143.044 124.872 144.581 125.431 145.841 126.551C147.101 127.671 147.732 129.091 147.732 130.81C147.732 132.601 147.154 134.179 146 135.546C144.845 136.913 143.002 137.596 140.472 137.596C138.862 137.596 137.438 137.161 136.201 136.293C134.964 135.425 134.271 134.091 134.124 132.292L136.705 132.292Z" fill="#1A3659"/>
</g>
<defs>
<clipPath id="clip0_32_72">
<rect width="164.409" height="144" fill="white"/>
</clipPath>
</defs>
</svg>
