<svg width="277" height="61" viewBox="0 0 277 61" fill="none" xmlns="http://www.w3.org/2000/svg">
<path d="M274.988 37.5541C274.056 37.4411 272.418 37.2858 270.075 37.0882C268.776 37.0317 267.732 37.0035 266.941 37.0035C265.925 37.0035 264.965 37.0317 264.061 37.0882V30.5238H265.12C267.435 30.5238 269.835 30.6791 272.32 30.9897C273.11 31.1026 273.999 31.2579 274.988 31.4555V37.5541ZM268 51.4028C268 50.8099 267.957 50.3864 267.873 50.1323C267.788 49.8499 267.647 49.6664 267.449 49.5817C267.252 49.4688 266.913 49.3841 266.433 49.3276L261.224 48.6923C258.146 48.3535 256.071 47.3512 254.998 45.6854C254.518 44.9796 254.193 44.1184 254.024 43.102C253.855 42.0856 253.77 40.8433 253.77 39.3751C253.77 36.2412 254.575 33.9825 256.184 32.599C257.483 31.4696 259.516 30.8061 262.282 30.6085V39.121C262.282 39.4881 262.297 39.7986 262.325 40.0528C262.353 40.3069 262.409 40.5045 262.494 40.6457C262.579 40.8151 262.72 40.9421 262.918 41.0268C263.115 41.0833 263.412 41.1256 263.807 41.1539L269.651 41.8738C270.866 42.0432 271.854 42.255 272.616 42.5091C273.378 42.7632 274.028 43.1585 274.564 43.6949C275.835 45.0219 276.47 47.3795 276.47 50.7675C276.47 54.3532 275.679 56.8661 274.098 58.306C273.392 58.9554 272.531 59.4353 271.515 59.7459C270.527 60.0282 269.355 60.2118 268 60.2965V51.4028ZM265.755 60.3388C262.932 60.3388 260.306 60.2118 257.878 59.9577C256.438 59.8165 255.351 59.6753 254.617 59.5342V53.3509C256.283 53.4921 258.189 53.6333 260.334 53.7744C261.69 53.8309 262.649 53.8591 263.214 53.8591C264.739 53.8591 265.741 53.8168 266.221 53.7321V60.3388H265.755Z" fill="#333333"/>
<path d="M226.376 30.8626H234.846V60H226.376V30.8626ZM238.319 50.0899H236.625V43.6102H238.065C238.94 43.6102 239.604 43.582 240.055 43.5255C240.507 43.4408 240.86 43.2997 241.114 43.102C241.34 42.9044 241.495 42.6079 241.58 42.2126C241.665 41.8174 241.707 41.2386 241.707 40.4763C241.707 39.7139 241.665 39.1352 241.58 38.7399C241.495 38.3164 241.34 38.0058 241.114 37.8082C240.888 37.6105 240.55 37.4835 240.098 37.427C239.674 37.3705 238.997 37.3423 238.065 37.3423H236.625V30.8626H240.987C242.992 30.8626 244.615 31.0602 245.858 31.4555C247.1 31.8508 248.06 32.4578 248.737 33.2766C249.359 34.0389 249.768 34.9848 249.966 36.1141C250.191 37.2435 250.304 38.6975 250.304 40.4763C250.304 42.7632 250.093 44.5278 249.669 45.7701C249.076 47.3512 248.032 48.4665 246.535 49.1158L250.94 60H242.046L238.319 50.0899Z" fill="#333333"/>
<path d="M200.279 30.8626H208.749V60H200.279V30.8626ZM210.528 30.8626H221.285V37.3423H210.528V30.8626ZM210.528 42.0432H219.295V48.5229H210.528V42.0432ZM210.528 53.5203H221.285V60H210.528V53.5203Z" fill="#333333"/>
<path d="M169.963 32.0484V30.8626H178.434L194.781 58.7718V60H186.353L169.963 32.0484ZM186.734 41.4927V30.8626H194.781V55.2567L186.734 41.4927ZM169.963 35.5636L178.01 49.3276V60H169.963V35.5636Z" fill="#333333"/>
<path d="M143.866 30.8626H152.337V60H143.866V30.8626ZM154.115 30.8626H164.872V37.3423H154.115V30.8626ZM154.115 42.0432H162.882V48.5229H154.115V42.0432ZM154.115 53.5203H164.872V60H154.115V53.5203Z" fill="#333333"/>
<path d="M116.887 30.8626H140.73V37.6388H116.887V30.8626ZM124.552 39.3328H133.022V60H124.552V39.3328Z" fill="#333333"/>
<path d="M113.401 37.5541C112.469 37.4411 110.832 37.2858 108.488 37.0882C107.189 37.0317 106.145 37.0035 105.354 37.0035C104.338 37.0035 103.378 37.0317 102.474 37.0882V30.5238H103.533C105.848 30.5238 108.248 30.6791 110.733 30.9897C111.523 31.1026 112.413 31.2579 113.401 31.4555V37.5541ZM106.413 51.4028C106.413 50.8099 106.371 50.3864 106.286 50.1323C106.201 49.8499 106.06 49.6664 105.862 49.5817C105.665 49.4688 105.326 49.3841 104.846 49.3276L99.6369 48.6923C96.5594 48.3535 94.4842 47.3512 93.4113 45.6854C92.9313 44.9796 92.6066 44.1184 92.4372 43.102C92.2678 42.0856 92.1831 40.8433 92.1831 39.3751C92.1831 36.2412 92.9878 33.9825 94.5971 32.599C95.8959 31.4696 97.9287 30.8061 100.696 30.6085V39.121C100.696 39.4881 100.71 39.7986 100.738 40.0528C100.766 40.3069 100.823 40.5045 100.907 40.6457C100.992 40.8151 101.133 40.9421 101.331 41.0268C101.529 41.0833 101.825 41.1256 102.22 41.1539L108.065 41.8738C109.279 42.0432 110.267 42.255 111.029 42.5091C111.792 42.7632 112.441 43.1585 112.977 43.6949C114.248 45.0219 114.883 47.3795 114.883 50.7675C114.883 54.3532 114.093 56.8661 112.512 58.306C111.806 58.9554 110.945 59.4353 109.928 59.7459C108.94 60.0282 107.768 60.2118 106.413 60.2965V51.4028ZM104.168 60.3388C101.345 60.3388 98.7193 60.2118 96.2911 59.9577C94.8512 59.8165 93.7642 59.6753 93.0301 59.5342V53.3509C94.6959 53.4921 96.6017 53.6333 98.7475 53.7744C100.103 53.8309 101.063 53.8591 101.627 53.8591C103.152 53.8591 104.154 53.8168 104.634 53.7321V60.3388H104.168Z" fill="#333333"/>
<path d="M70.8584 30.8626H71.5784L74.9241 42.4668L70.0538 60H61.5836L70.8584 30.8626ZM80.3874 54.8332H73.3148L75.0935 48.3112H78.4816L73.4842 30.8626H81.2344L90.5093 60H81.8697L80.3874 54.8332Z" fill="#333333"/>
<path d="M41.7528 30.8626H50.223V60H41.7528V30.8626ZM52.0017 30.8626H61.9118V37.3423H52.0017V30.8626ZM52.0017 42.8903H60.3448V49.3699H52.0017V42.8903Z" fill="#333333"/>
<path d="M266.134 12.3449L265.91 11.8467L265.262 10.5761L264.64 9.25579C264.573 9.13953 264.49 8.96515 264.391 8.73263L263.369 6.61509L260.629 0.860352H265.711L271.117 12.3698V18H266.134V12.3449ZM269.348 6.16667L271.665 0.860352H276.647L274.704 4.89614L273.882 6.59018L272.313 9.85369L271.69 11.1491L269.348 6.16667Z" fill="#CC9900"/>
<path d="M246 0.860352H250.982V18H246V0.860352ZM253.025 12.1705H252.028V8.35895H252.875C253.39 8.35895 253.781 8.34234 254.046 8.30912C254.312 8.2593 254.52 8.17626 254.669 8.06C254.802 7.94374 254.893 7.76936 254.943 7.53684C254.993 7.30433 255.018 6.96386 255.018 6.51544C255.018 6.06702 254.993 5.72655 254.943 5.49404C254.893 5.24491 254.802 5.06222 254.669 4.94596C254.536 4.82971 254.337 4.75497 254.071 4.72175C253.822 4.68854 253.423 4.67193 252.875 4.67193H252.028V0.860352H254.594C255.774 0.860352 256.729 0.976609 257.459 1.20912C258.19 1.44164 258.755 1.79871 259.153 2.28035C259.519 2.72877 259.76 3.28515 259.876 3.94947C260.009 4.6138 260.075 5.46912 260.075 6.51544C260.075 7.8607 259.951 8.89871 259.701 9.62947C259.353 10.5595 258.738 11.2156 257.858 11.5975L260.449 18H255.217L253.025 12.1705Z" fill="#CC9900"/>
<path d="M232.783 0.860352H233.207L235.175 7.68632L232.31 18H227.327L232.783 0.860352ZM238.388 14.9607H234.228L235.274 11.1242H237.267L234.328 0.860352H238.887L244.342 18H239.26L238.388 14.9607Z" fill="#CC9900"/>
<path d="M214.145 0.860352H228.171V4.84632H214.145V0.860352ZM218.655 5.84281H223.637V18H218.655V5.84281Z" fill="#CC9900"/>
<path d="M207.318 0.860352H212.3V18H207.318V0.860352Z" fill="#CC9900"/>
<path d="M193.84 0.860352H198.822V18H193.84V0.860352ZM199.868 13.9891H205.2V18H199.868V13.9891Z" fill="#CC9900"/>
<path d="M185.617 0.860352H190.599V18H185.617V0.860352Z" fill="#CC9900"/>
<path d="M163.575 1.60772V0.860352H168.159L175.334 16.1067L174.512 18H171.273L163.575 1.60772ZM177.65 10.8004H177.551L175.882 14.8361L173.739 10.2523L177.65 0.860352H182.384V18H177.65V10.8004ZM163.575 4.07404L168.159 13.8397V18H163.575V4.07404Z" fill="#CC9900"/>
<path d="M141.598 0.860352H155.624V4.84632H141.598V0.860352ZM146.107 5.84281H151.09V18H146.107V5.84281Z" fill="#CC9900"/>
<path d="M139.548 4.79651C139 4.73008 138.036 4.63873 136.658 4.52248C135.894 4.48926 135.279 4.47265 134.814 4.47265C134.216 4.47265 133.652 4.48926 133.12 4.52248V0.661072H133.743C135.105 0.661072 136.517 0.752417 137.978 0.935106C138.443 1.00154 138.966 1.09288 139.548 1.20914V4.79651ZM135.437 12.9428C135.437 12.5941 135.412 12.3449 135.362 12.1955C135.313 12.0294 135.23 11.9214 135.113 11.8716C134.997 11.8052 134.798 11.7553 134.515 11.7221L131.451 11.3484C129.641 11.1491 128.42 10.5596 127.789 9.57967C127.507 9.16446 127.316 8.65791 127.216 8.06002C127.116 7.46212 127.067 6.73136 127.067 5.86774C127.067 4.02423 127.54 2.69557 128.487 1.88177C129.251 1.21745 130.446 0.827154 132.074 0.710897V5.71826C132.074 5.93417 132.082 6.11686 132.099 6.26634C132.116 6.41581 132.149 6.53207 132.199 6.61511C132.248 6.71476 132.331 6.78949 132.448 6.83932C132.564 6.87253 132.738 6.89745 132.971 6.91405L136.409 7.33756C137.123 7.43721 137.704 7.56177 138.153 7.71125C138.601 7.86072 138.983 8.09324 139.299 8.40879C140.046 9.18938 140.42 10.5762 140.42 12.5691C140.42 14.6784 139.955 16.1565 139.025 17.0035C138.609 17.3855 138.103 17.6679 137.505 17.8505C136.924 18.0166 136.234 18.1246 135.437 18.1744V12.9428ZM134.117 18.1993C132.456 18.1993 130.911 18.1246 129.483 17.9751C128.636 17.8921 127.997 17.809 127.565 17.726V14.0888C128.545 14.1718 129.666 14.2549 130.928 14.3379C131.725 14.3711 132.29 14.3877 132.622 14.3877C133.519 14.3877 134.109 14.3628 134.391 14.313V18.1993H134.117Z" fill="#CC9900"/>
<path d="M112.388 0.860352H117.371V18H112.388V0.860352ZM118.417 0.860352H124.745V4.67193H118.417V0.860352ZM118.417 7.43719H123.574V11.2488H118.417V7.43719ZM118.417 14.1884H124.745V18H118.417V14.1884Z" fill="#CC9900"/>
<path d="M90.0893 17.2775C89.973 16.8125 89.8235 16.1648 89.6408 15.3344L88.9682 12.594L88.2208 9.45509L86.2029 0.860352H91.1605L94.698 18H90.2636L90.0893 17.2775ZM94.0005 9.43018L95.8689 0.860352H100.976L105.062 18H100.802L100.602 17.1779L100.079 15.0105L99.3317 11.8467C99.0162 10.5678 98.7172 9.31392 98.4349 8.08491H98.2854L97.4384 11.8467L97.1643 13.1172C97.0813 13.466 96.9983 13.7981 96.9152 14.1137C96.8488 14.4292 96.7824 14.7282 96.7159 15.0105L96.2177 17.1779L96.0184 18H95.7443L94.0005 9.43018ZM104.065 9.2807L105.56 0.860352H110.517L108.475 9.45509L107.727 12.594C107.412 13.8729 107.196 14.7863 107.079 15.3344L106.606 17.2775L106.432 18H106.133L104.065 9.2807Z" fill="#CC9900"/>
<path d="M70.8838 0.860352H75.8663V18H70.8838V0.860352ZM76.9126 14.1884H77.1119C77.9257 14.1884 78.4987 14.1552 78.8308 14.0888C79.1796 14.0057 79.437 13.823 79.6031 13.5407C79.7858 13.2418 79.8855 12.7684 79.9021 12.1207C79.9353 11.2903 79.9519 10.3935 79.9519 9.43018C79.9519 8.48351 79.9353 7.57836 79.9021 6.71474C79.8688 6.06702 79.7609 5.59368 79.5782 5.29474C79.4121 4.99579 79.1381 4.8131 78.7561 4.74667C78.3741 4.69684 77.826 4.67193 77.1119 4.67193H76.9126V0.860352H77.1119C78.4405 0.860352 79.545 0.91848 80.4252 1.03474C81.3221 1.15099 82.0611 1.33368 82.6424 1.58281C83.2071 1.83193 83.6555 2.1724 83.9877 2.60421C84.3198 3.03602 84.5607 3.57579 84.7101 4.22351C84.843 4.8048 84.926 5.49404 84.9593 6.29123C85.0091 7.07181 85.034 8.11813 85.034 9.43018C85.034 10.7588 85.0091 11.8135 84.9593 12.594C84.926 13.3746 84.843 14.0556 84.7101 14.6368C84.5607 15.2846 84.3198 15.8243 83.9877 16.2561C83.6555 16.688 83.2071 17.0284 82.6424 17.2775C82.0611 17.5267 81.3221 17.7094 80.4252 17.8256C79.545 17.9419 78.4405 18 77.1119 18H76.9126V14.1884Z" fill="#CC9900"/>
<path d="M62.6608 0.860352H67.6433V18H62.6608V0.860352Z" fill="#CC9900"/>
<path d="M40.6193 1.60772V0.860352H45.2032L52.3779 16.1067L51.5558 18H48.3172L40.6193 1.60772ZM54.6947 10.8004H54.5951L52.926 14.8361L50.7835 10.2523L54.6947 0.860352H59.4281V18H54.6947V10.8004ZM40.6193 4.07404L45.2032 13.8397V18H40.6193V4.07404Z" fill="#CC9900"/>
<g>
<path d="M34.57 49.07H24.36C23.93 49.07 23.53 48.84 23.32 48.47L22.56 47.15H34.57V42.34H28C27.72 42.34 27.47 42.19 27.33 41.95L20.76 30.57C20.62 30.33 20.62 30.04 20.76 29.8L27.33 18.42C27.47 18.18 27.72 18.03 28 18.03H34.57V5.69H22.21C21.61 5.69 21.05 6.01 20.75 6.53L6.74 30.82C6.44 31.34 6.44 31.98 6.74 32.5L20.39 56.14C19.93 56.27 19.29 56.44 18.82 55.77L4.54 31.03C4.24 30.51 4.24 29.87 4.54 29.35L18.82 4.61C19.12 4.09 19.67 3.77 20.28 3.77H34.57V0H18.25C17.56 0 16.93 0.37 16.59 0.96L0.259997 29.23C-0.0800028 29.82 -0.0800028 30.56 0.259997 31.15L16.58 59.42C16.92 60.01 17.56 60.38 18.24 60.38H34.56V49.07H34.57Z" fill="#333333"/>
</g>
</svg>
