<svg width="35" height="61" viewBox="0 0 35 61" fill="none" xmlns="http://www.w3.org/2000/svg">
<path d="M34.57 49.07H24.36C23.93 49.07 23.53 48.84 23.32 48.47L22.56 47.15H34.57V42.34H28C27.72 42.34 27.47 42.19 27.33 41.95L20.76 30.57C20.62 30.33 20.62 30.04 20.76 29.8L27.33 18.42C27.47 18.18 27.72 18.03 28 18.03H34.57V5.69H22.21C21.61 5.69 21.05 6.01 20.75 6.53L6.74 30.82C6.44 31.34 6.44 31.98 6.74 32.5L20.39 56.14C19.93 56.27 19.29 56.44 18.82 55.77L4.54 31.03C4.24 30.51 4.24 29.87 4.54 29.35L18.82 4.61C19.12 4.09 19.67 3.77 20.28 3.77H34.57V0H18.25C17.56 0 16.93 0.37 16.59 0.96L0.259997 29.23C-0.0800028 29.82 -0.0800028 30.56 0.259997 31.15L16.58 59.42C16.92 60.01 17.56 60.38 18.24 60.38H34.56V49.07H34.57Z" fill="#1a1a1a"/>
</svg>
